<?xml version="1.0" encoding="utf-8"?>
<!-- Generator: Adobe Illustrator 24.1.2, SVG Export Plug-In . SVG Version: 6.00 Build 0)  -->
<svg version="1.1" id="Layer_1" xmlns="http://www.w3.org/2000/svg" xmlns:xlink="http://www.w3.org/1999/xlink" x="0px" y="0px"
	 viewBox="0 0 400 400" style="enable-background:new 0 0 400 400;" xml:space="preserve">
<style type="text/css">
	.st0{fill:#FFFFFF;}
	.st1{fill:#18477C;}
</style>
<polygon class="st0" points="197.74,80.95 305.97,80.95 305.97,217.92 292.82,259.5 259.19,298.63 209.66,326.31 197.74,330.12 
	122.73,228.92 109.38,156.16 119.78,87.06 "/>
<g>
	<path class="st1" d="M92.59,264.45c5.29-1.93,9.24-1.7,15.13,1c-2.02-3.81-3.81-7.17-5.57-10.48c-8.71,1.03-14.27-2.31-17.18-10.37
		c5.17-0.74,9.75,0.31,14.08,3.56c-1.35-3.77-2.7-7.54-4.13-11.54c-8.71,0.95-13.51-3.7-16.31-11.32c4.65-1.08,9.15,0.53,14.65,5.4
		c-0.78-3.85-1.46-7.2-2.18-10.79c-8.5,0-12.84-4.96-15.06-13.02c5.81,0.09,10.24,2.16,14.18,6.21c-0.21-2.92-0.43-5.84-0.64-8.68
		c-8.82-2.9-12.91-7.85-12.47-15.15c5.19,0.96,9.29,3.48,12.38,8.52c0.25-4.3,1.37-7.9,0.09-11.61c-0.85-2.47-0.37-4.95,0.31-7.44
		c0.47-1.72,0.85-3.53,0.85-5.31c0.05-30.72,0.04-61.44,0.03-92.16c0-1.01,0-2.02,0-3.27c72.53,0,144.96,0,217.7,0
		c0,1.34,0,2.63,0,3.92c0,29.71,0.01,59.42-0.02,89.13c0,2.05,0.26,3.91,1.3,5.78c1.55,2.79,2.31,5.89,1.27,9.05
		c-1.26,3.81-0.49,7.55-0.06,12.01c3.11-5.02,7.19-7.62,12.35-8.62c0.98,6.65-3.5,12.14-12.49,15.22c-0.19,2.84-0.39,5.77-0.59,8.71
		c3.89-4.14,8.4-6.08,13.79-6.32c-0.19,7.06-5.42,11.75-14.66,13.2c-0.7,3.32-1.41,6.73-2.13,10.13c4.2-3.74,8.83-5.64,14.39-5.23
		c-1.23,7.46-6.82,11.55-16.12,11.78c-1.37,3.74-2.77,7.57-4.16,11.39c2.33-1.09,4.45-2.42,6.76-3.06c2.34-0.65,4.87-0.6,7.52-0.89
		c-2.5,8.12-8.26,11.6-17.34,10.8c-1.84,3.37-3.7,6.77-5.92,10.83c5.29-3.12,10.23-3.2,15.32-1.66c-2.96,6.74-9.49,9.14-18.83,6.9
		c-2.05,2.7-4.14,5.45-6.42,8.44c7.67-1.35,10.85-0.99,15.14,1.59c-4.86,6.09-11.36,7.26-19.3,3.55c-2.48,2.53-4.93,5.03-7.49,7.65
		c5.19-1.1,9.74,0.51,14.01,3.45c-5.11,5.46-12.84,5.8-19.55,0.88c-2.41,1.83-4.86,3.69-7.85,5.96c5.59,0.05,9.93,1.71,13.6,5.13
		c-6.38,4.73-12.65,4.43-19.82-0.97c-2.25,1.31-4.57,2.65-7.6,4.41c5.54,0.47,9.48,2.67,12.79,6.14c-5.09,3.6-13.27,4.3-19.44-2.65
		c-2.47,1.09-5.02,2.2-8.3,3.65c5.5,1.53,9.27,4.38,11.85,8.88c-8.16,2.13-12.11,0.89-18.24-5.67c-4.99,3.15-10.01,6.31-15.41,9.71
		c4.72,3.3,9.33,6.2,13.65,10.54c-1.59,0.14-2.53,0.22-3.12,0.27c-4.49-3.18-8.68-6.14-12.88-9.12c-1.68,0.95-3.15,1.78-4.74,2.68
		c-1.33-0.74-2.63-1.46-4.28-2.38c-3.92,2.8-7.92,5.66-12.14,8.68c-0.67,0-1.65,0-3.45,0c4.09-4.32,8.57-7.1,13.21-10.31
		c-5.18-3.28-10.06-6.38-15.19-9.63c-4.47,6.12-10.51,7.22-17.44,5.4c1.06-3.41,2.32-4.5,10.71-9.21c-2.57-1.17-5-2.28-7.69-3.5
		c-5.48,6.47-12.1,6.55-19.54,3.02c3.25-3.87,7.29-5.78,12.59-6.59c-2.74-1.61-4.96-2.91-7.38-4.34
		c-6.09,6.02-12.69,5.32-19.87,1.14c3.86-3.4,7.96-5.3,13.7-5.13c-2.91-2.28-5.28-4.13-7.81-6.11c-3,2.71-6.51,3.99-10.52,3.47
		c-3.34-0.44-6.36-1.67-9.21-4.15c4.39-2.97,8.78-4.79,13.18-3.77c-1.95-1.99-4.33-4.42-7.07-7.23c-2.64,1.75-6.35,2.67-10.38,1.55
		c-3.28-0.91-6.03-2.65-8.43-5.35c4.84-2.78,9.74-3.29,15.46-1.27c-2.47-3.26-4.51-5.96-6.7-8.84c-3.73,1.31-7.52,1.98-11.34,0.16
		C97.02,269.69,94.6,267.51,92.59,264.45z M262.03,289.28c0.26-8.24,1.96-11.88,6.73-14.37c0.8,1.88,1.59,3.75,2.5,5.9
		c1.14-1.32,2.05-2.37,3-3.47c-1.65-4.59-0.41-8.73,1.99-13.02c-6.57,0-12.69,0-18.81,0c-0.51-6.86-0.88-13.5-1.54-20.1
		c-0.55-5.52-0.78-11.2-2.33-16.45c-2.54-8.58-8.55-11.69-17-9.58c0,15.28,0,30.66,0,46.02c-6.82,0-13.23,0-19.76,0
		c0-13.59,0-26.99,0-40.3c2.31-2.18,4.51-4.26,6.7-6.34c2.73-2.59,4.44-5.84,5-9.48c0.53-3.47,0.63-7.03,0.6-10.55
		c-0.03-4.6-2.02-8.41-5.59-11.29c-2.9-2.34-5.79-4.74-8.93-6.72c-2.84-1.79-4.62-4.31-6.49-7.09c5.84-4.1,11.52-8.08,17.35-12.16
		c1.05,0.98,2.09,1.79,2.93,2.77c3.63,4.24,5.59,9.29,6.89,14.64c1.47,6.05,1.43,12.21,1.44,18.37c0,1.28,0.11,2.56,0.17,3.97
		c2.92,0.15,5.59,0.55,7.83-1.27c3.33-2.71,6.28-5.77,7-10.26c0.87-5.48,1.69-10.97,2.4-16.47c0.43-3.27,0.62-6.57,0.91-9.87
		c6.62,0,13.04,0,19.7,0c0,1.23,0.1,2.33-0.02,3.4c-0.74,6.72-1.74,13.42-2.24,20.15c-0.6,8.01-4.56,14.05-10.28,19.22
		c-0.96,0.87-2.05,1.59-2.65,2.04c2.82,3.1,5.16,5.74,7.57,8.32c3.72,3.98,6.6,8.3,7.12,13.99c1.02,11.05,2.28,22.08,3.46,33.34
		c2.29,0.62,2.54,3.48,4.07,5.61c0.85-1.26,1.57-2.33,2.26-3.36c-2.18-5.54-2.35-10.71,1.83-15.74c1.54,1.95,2.89,3.66,4.39,5.55
		c0.78-1.53,1.54-3.01,2.3-4.51c-3.35-4.9-4.63-9.9-1.56-15.88c2.13,1.89,4.02,3.57,6.06,5.37c0.79-2.45,1.55-4.82,2.31-7.18
		c-3.9-4.62-5.3-9.55-3.06-15.66c2.05,1.38,3.83,2.57,5.95,3.99c0.2-1.71,0.36-3.16,0.51-4.48c-4.45-4.33-6.39-9.14-4.49-15.52
		c2.09,1.12,3.88,2.08,5.66,3.04c0.16-0.14,0.32-0.28,0.48-0.42c-0.45-0.76-0.82-1.59-1.39-2.26c-0.51-0.6-1.29-0.97-1.86-1.53
		c-3.39-3.38-5.08-7.33-4.06-12.77c2.56,1.08,4.76,2.01,7.37,3.12c-0.29-2.26-0.21-4.26-0.85-5.99c-1.44-3.9-1.3-7.68-0.17-11.57
		c0.39-1.34,0.75-2.75,0.75-4.13c0.04-27.49,0.03-54.97,0.01-82.46c0-0.97-0.19-1.93-0.31-3.07c-33.93,0-67.56,0-101.48,0
		c-0.1,1.33-0.26,2.5-0.26,3.68c-0.02,13.34-0.01,26.68-0.01,40.02c0,1.06-0.1,2.12-0.16,3.33c-4.32-0.7-7.82,0.62-10.81,2.96
		c-5.4,4.2-10.66,8.6-15.85,13.06c-2.17,1.87-3.48,4.43-4.23,7.22c-2.05,7.64-1.68,15.06,2.36,22.61c-3.03-2.08-5.64-3.86-8.37-5.74
		c-3.04,7.39-7.09,13.47-13.39,17.49c-5.14-1.46-9.03-6.2-9.42-11.48c-0.96-13.12-0.89-26.24-0.04-39.37
		c0.29-4.48,2.68-7.74,6.02-10.39c0.95-0.75,2.29-1,3.49-1.5c6.58,5.43,10.56,12.19,13.32,20.17c5.33-3.7,10.33-7.17,15.43-10.72
		c-4.09-12.49-12.16-21.04-23.48-26.64c-4.53-2.24-9.09-1.97-13.05,1.34c-4.41,3.68-8.6,7.62-12.9,11.42
		c-5.94,5.25-8.24,12.04-8.28,19.73c-0.05,10.81-0.07,21.62,0.01,32.43c0.05,7.7,2.44,14.47,8.42,19.67
		c0.53,0.46,0.95,1.06,1.48,1.52c3.88,3.37,7.68,6.84,11.69,10.05c3.19,2.56,6.93,3.27,10.83,1.8
		c10.84-4.06,19.07-11.06,24.02-21.69c0.36-0.77,0.73-1.53,1.02-2.14c7.42,4.08,14.56,8.01,21.76,11.97c0,6.58,0,13.13,0,19.6
		c-2.38,1.51-4.16,0.4-5.81-1.07c-4.27-3.8-7.76-8.19-10.02-13.5c-0.33-0.78-0.77-1.52-1.25-2.45c-5.41,3.71-10.54,7.24-15.56,10.68
		c1.7,10.76,19.31,27.56,32.71,26.68c0,30.8,0,61.59,0,92.78c6.86-3.05,13.45-5.72,19.07-10.07c1.61-9.48,5.37-14.22,11.66-14.61
		c0,2.38,0,4.76,0,7.29c0.78-0.45,1.61-0.94,2.45-1.42c0.4-6.23,2.57-11.25,9.03-13.96c0.42,2.53,0.8,4.82,1.23,7.45
		c1.31-0.84,2.45-1.58,3.59-2.31c-0.07-5.91,1.88-10.54,7.57-13.55c0.68,2.31,1.3,4.39,2.01,6.77
		C259.86,290.99,260.94,290.14,262.03,289.28z"/>
	<path class="st1" d="M201.96,149.64c0,7.8,0,14.81,0,22.27c-3.94-2.06-7.65-3.85-10.59-6.77c-2.25-2.24-2.14-8.96-0.01-11.7
		c1.59-2.05,3.71-3.49,6.22-4.02C198.93,149.14,200.41,149.54,201.96,149.64z"/>
</g>
</svg>
